<svg id="visual" viewBox="0 0 960 540" width="960" height="540" xmlns="http://www.w3.org/2000/svg" xmlns:xlink="http://www.w3.org/1999/xlink" version="1.1"><path d="M0 421L26.7 418C53.3 415 106.7 409 160 405.8C213.3 402.7 266.7 402.3 320 412.7C373.3 423 426.7 444 480 456.8C533.3 469.7 586.7 474.3 640 462.8C693.3 451.3 746.7 423.7 800 411.7C853.3 399.7 906.7 403.3 933.3 405.2L960 407L960 541L933.3 541C906.7 541 853.3 541 800 541C746.7 541 693.3 541 640 541C586.7 541 533.3 541 480 541C426.7 541 373.3 541 320 541C266.7 541 213.3 541 160 541C106.7 541 53.3 541 26.7 541L0 541Z" fill="#ab6fff"></path><path d="M0 434L26.7 434.5C53.3 435 106.7 436 160 438.8C213.3 441.7 266.7 446.3 320 456.2C373.3 466 426.7 481 480 480.5C533.3 480 586.7 464 640 466C693.3 468 746.7 488 800 496.3C853.3 504.7 906.7 501.3 933.3 499.7L960 498L960 541L933.3 541C906.7 541 853.3 541 800 541C746.7 541 693.3 541 640 541C586.7 541 533.3 541 480 541C426.7 541 373.3 541 320 541C266.7 541 213.3 541 160 541C106.7 541 53.3 541 26.7 541L0 541Z" fill="#8a44f7"></path><path d="M0 486L26.7 483C53.3 480 106.7 474 160 472C213.3 470 266.7 472 320 478.5C373.3 485 426.7 496 480 496.2C533.3 496.3 586.7 485.7 640 482.2C693.3 478.7 746.7 482.3 800 488C853.3 493.7 906.7 501.3 933.3 505.2L960 509L960 541L933.3 541C906.7 541 853.3 541 800 541C746.7 541 693.3 541 640 541C586.7 541 533.3 541 480 541C426.7 541 373.3 541 320 541C266.7 541 213.3 541 160 541C106.7 541 53.3 541 26.7 541L0 541Z" fill="#6200ee"></path></svg>